<?xml version="1.0" encoding="UTF-8" standalone="no"?>
<!-- Created with Inkscape (http://www.inkscape.org/) -->

<svg
   xmlns:dc="http://purl.org/dc/elements/1.1/"
   xmlns:cc="http://creativecommons.org/ns#"
   xmlns:rdf="http://www.w3.org/1999/02/22-rdf-syntax-ns#"
   xmlns:svg="http://www.w3.org/2000/svg"
   xmlns="http://www.w3.org/2000/svg"
   xmlns:sodipodi="http://sodipodi.sourceforge.net/DTD/sodipodi-0.dtd"
   xmlns:inkscape="http://www.inkscape.org/namespaces/inkscape"
   id="svg2985"
   version="1.1"
   inkscape:version="0.48.3.1 r9886"
   width="2000"
   height="2000"
   sodipodi:docname="UniverseGlyph-QuestionMarks-black-border2.svg">
  <metadata
     id="metadata2991">
    <rdf:RDF>
      <cc:Work
         rdf:about="">
        <dc:format>image/svg+xml</dc:format>
        <dc:type
           rdf:resource="http://purl.org/dc/dcmitype/StillImage" />
        <dc:title />
      </cc:Work>
    </rdf:RDF>
  </metadata>
  <defs
     id="defs2989" />
  <sodipodi:namedview
     pagecolor="#ffffff"
     bordercolor="#666666"
     borderopacity="1"
     objecttolerance="10"
     gridtolerance="10"
     guidetolerance="10"
     inkscape:pageopacity="0"
     inkscape:pageshadow="2"
     inkscape:window-width="1295"
     inkscape:window-height="744"
     id="namedview2987"
     showgrid="false"
     inkscape:zoom="0.2595"
     inkscape:cx="1116.6992"
     inkscape:cy="1032.3767"
     inkscape:window-x="65"
     inkscape:window-y="24"
     inkscape:window-maximized="1"
     inkscape:current-layer="svg2985" />
  <path
     style="fill:#000000"
     d="m 1.9267823,1001.1561 0,-1000.0000306 1000.0000177,0 1000,0 0,1000.0000306 0,1000 -1000,0 -1000.0000177,0 0,-1000 z m 1957.6108177,3.8535 0,-949.903627 -953.7573,0 -953.757179,0 0,949.903627 0,949.9037 953.757179,0 953.7573,0 0,-949.9037 z"
     id="path2995"
     inkscape:connector-curvature="0" />
  <path
     style="fill:#000000"
     d="m 1.9267823,1001.1561 0,-1000.0000306 1000.0000177,0 1000,0 0,1000.0000306 0,1000 -1000,0 -1000.0000177,0 0,-1000 z m 1957.6108177,3.8535 0,-949.903627 -953.7573,0 -953.757179,0 0,949.903627 0,949.9037 953.757179,0 953.7573,0 0,-949.9037 z"
     id="path2997"
     inkscape:connector-curvature="0" />
  <path
     style="fill:#000000"
     d="m 1.9267823,1001.1561 0,-1000.0000306 1000.0000177,0 1000,0 0,1000.0000306 0,1000 -1000,0 -1000.0000177,0 0,-1000 z m 1957.6108177,3.8535 0,-949.903627 -953.7573,0 -953.757179,0 0,949.903627 0,949.9037 953.757179,0 953.7573,0 0,-949.9037 z"
     id="path2999"
     inkscape:connector-curvature="0" />
  <path
     style="fill:#000000"
     d="m 1.9267823,1001.1561 0,-1000.0000306 1000.0000177,0 1000,0 0,1000.0000306 0,1000 -1000,0 -1000.0000177,0 0,-1000 z m 1957.6108177,3.8535 0,-949.903627 -953.7573,0 -953.757179,0 0,949.903627 0,949.9037 953.757179,0 953.7573,0 0,-949.9037 z"
     id="path3001"
     inkscape:connector-curvature="0" />
  <flowRoot
     xml:space="preserve"
     id="flowRoot3045"
     style="fill:black;stroke:none;stroke-opacity:1;stroke-width:1px;stroke-linejoin:miter;stroke-linecap:butt;fill-opacity:1;font-family:Sans;font-style:normal;font-weight:normal;font-size:40px;line-height:125%;letter-spacing:0px;word-spacing:0px"><flowRegion
       id="flowRegion3047"><rect
         id="rect3049"
         width="1402.6975"
         height="1649.3257"
         x="362.23508"
         y="188.82466" /></flowRegion><flowPara
       id="flowPara3051" /></flowRoot>  <flowRoot
     xml:space="preserve"
     id="flowRoot3069"
     style="font-size:144px;font-style:normal;font-weight:bold;line-height:125%;letter-spacing:0px;word-spacing:0px;fill:#000000;fill-opacity:1;stroke:none;font-family:Arial;-inkscape-font-specification:Arial Bold;font-stretch:normal;font-variant:normal"><flowRegion
       id="flowRegion3071"><rect
         id="rect3073"
         width="797.68787"
         height="377.64932"
         x="416.18497"
         y="427.74567"
         style="-inkscape-font-specification:Arial Bold;font-family:Arial;font-weight:bold;font-style:normal;font-stretch:normal;font-variant:normal" /></flowRegion><flowPara
       id="flowPara3075" /></flowRoot>  <path
     style="fill:#ff6600"
     d="m 53.115385,1001.5346 0,-947.976811 951.830415,0 951.8305,0 0,947.976811 0,947.9769 -951.8305,0 -951.830415,0 0,-947.9769 z m 1109.826615,635.7977 0,-123.3546 -168.59347,1.0039 -168.59345,1.0039 -1.02127,117.4939 c -0.5617,64.6216 -0.18266,119.6794 0.84242,122.3507 1.45966,3.8037 38.23522,4.8567 169.61476,4.8567 l 167.75101,0 0,-123.3545 z m -23.8821,-288.0135 c 8.5959,-103.1083 21.502,-140.517 62.7294,-181.8234 29.5499,-29.6066 88.7269,-74.0741 166.4776,-125.0966 85.1678,-55.88995 146.6565,-103.43338 189.6654,-146.65056 44.8987,-45.116 68.6045,-82.27472 87.3934,-136.98813 11.8508,-34.50983 12.5718,-39.7022 12.573,-90.55877 0,-60.19542 -4.9259,-84.1536 -26.9463,-131.0212 C 1587.699,445.12095 1478.2456,359.02944 1341.4316,309.45508 1171.3382,247.822 928.70186,237.9693 739.65747,285.01892 509.76702,342.23437 369.93499,478.98107 333.05261,682.65221 c -4.81948,26.61402 -4.76521,29.86512 0.49854,29.86512 9.29066,0 270.88558,18.90058 286.95356,20.7328 14.0938,1.60709 14.48794,1.29895 18.37164,-14.3622 2.18281,-8.80247 9.32497,-30.74439 15.87137,-48.75981 49.22867,-135.47464 148.61345,-209.73896 299.49776,-223.7968 137.69382,-12.82891 263.60262,29.0968 343.32732,114.32274 52.3278,55.93861 65.0429,121.46905 35.7253,184.11934 -23.1666,49.5059 -105.6656,123.68798 -193.4775,173.97256 -139.599,79.93988 -207.68533,137.66864 -253.47207,214.91274 -31.70594,53.4892 -43.25241,111.9414 -43.25241,218.9586 l 0,53.5416 145.6126,0 145.61258,0 4.7386,-56.8401 z"
     id="path2996"
     inkscape:connector-curvature="0" />
  <path
     style="fill:#ffffff"
     d="m 843.16968,1390.1667 c 0.21696,-42.6274 8.34335,-148.7984 13.0516,-170.5203 12.50775,-57.7057 39.03665,-104.978 87.60913,-156.1122 36.58767,-38.5173 81.10969,-71.58204 170.94199,-126.95175 92.7647,-57.17715 121.9016,-78.91368 168.7384,-125.88135 28.3714,-28.45059 40.5796,-43.93919 49.2689,-62.5077 30.9153,-66.06463 18.5782,-131.58436 -35.7034,-189.61149 C 1219.3002,475.439 1094.646,433.20769 961.90232,445.02906 792.57824,460.10806 696.60809,536.19989 644.28836,696.85559 l -10.87331,33.38813 -17.51014,-0.0515 c -9.63058,-0.0283 -74.73558,-4.34697 -144.67777,-9.59696 -69.9422,-5.25001 -130.28089,-9.56211 -134.08599,-9.58242 -5.85899,-0.0313 -6.54195,-2.24971 -4.4602,-14.48783 41.84891,-246.01966 223.79552,-394.3101 527.75621,-430.13277 79.09044,-9.32104 129.76705,-10.91011 202.31214,-6.34392 130.087,8.18804 220.0065,27.15991 312.862,66.00988 135.0269,56.49413 230.0697,144.13231 266.9901,246.18936 8.8598,24.49031 10.7718,37.13638 12.527,82.85164 2.4131,62.85341 -1.6141,83.96816 -25.9001,135.79294 -37.6521,80.34767 -97.6494,137.72686 -257.9255,246.67034 -124.5934,84.6892 -175.7865,126.4522 -197.8307,161.389 -20.2411,32.0791 -26.5904,61.691 -39.7601,185.4348 l -2.1531,20.2312 -144.23141,0 -144.23137,0 0.0736,-14.4508 -4e-5,0 z"
     id="path2994"
     inkscape:connector-curvature="0" />
  <path
     style="fill:#ffffff"
     d="m 843.16968,1390.1667 c 0.21696,-42.6274 8.34335,-148.7984 13.0516,-170.5203 12.50775,-57.7057 39.03665,-104.978 87.60913,-156.1122 36.58767,-38.5173 81.10969,-71.58204 170.94199,-126.95175 92.449,-56.98254 121.9305,-78.93988 167.8889,-125.04077 54.4624,-54.63125 74.0892,-102.10343 65.0932,-157.44324 C 1334.3437,571.60092 1240.151,489.46891 1123.572,458.62089 1008.7468,428.23696 871.63631,444.32979 785.29265,498.32518 722.04733,537.87592 673.06044,606.70785 644.23612,696.52503 l -10.82107,33.71869 -17.51014,-0.0385 c -9.63058,-0.0187 -74.73558,-4.33083 -144.67777,-9.58085 -69.9422,-5.24998 -130.22281,-9.56863 -133.95691,-9.59696 -8.20346,-0.0622 -6.78893,-13.42215 7.22334,-68.22308 47.25698,-184.81853 197.11578,-313.13248 421.7143,-361.08543 94.95426,-20.27322 198.5106,-27.84087 296.54143,-21.67053 130.087,8.18804 220.0065,27.15991 312.862,66.00988 135.0269,56.49413 230.0697,144.13231 266.9901,246.18936 8.8598,24.49031 10.7718,37.13638 12.527,82.85164 2.4131,62.85341 -1.6141,83.96816 -25.9001,135.79294 -38.0312,81.15653 -93.7167,134.20613 -262.1135,249.70624 -171.4195,117.5732 -201.6732,148.4371 -217.0594,221.4372 -5.4705,25.955 -7.8755,43.9313 -16.1109,120.4239 l -2.3856,22.158 -144.23141,0 -144.23137,0 0.0736,-14.4508 -4e-5,0 z"
     id="path2998"
     inkscape:connector-curvature="0" />
  <path
     style="fill:#ffffff"
     d="m 843.21689,1386.3131 c 0.30096,-45.5914 7.66131,-140.5227 12.78377,-164.8784 12.40968,-59.004 38.58027,-106.0536 87.82975,-157.9005 35.75299,-37.6386 80.48059,-71.11398 165.16169,-123.61159 82.7463,-51.29815 105.331,-66.97207 143.5763,-99.64274 57.284,-48.93426 88.5436,-95.4052 94.7619,-140.87407 7.1131,-52.0121 -11.0309,-99.51081 -55.1647,-144.41416 -78.5846,-79.95478 -198.6081,-120.30352 -326.41927,-109.73345 -106.72563,8.82628 -171.89441,36.21477 -232.57434,97.74402 -29.59666,30.01092 -37.98819,41.576 -56.31036,77.60601 -11.8419,23.28676 -26.4618,57.48117 -32.48865,75.98753 l -10.95793,33.64797 -17.51014,-0.0605 c -9.63058,-0.0333 -75.60263,-4.34131 -146.60455,-9.57345 -71.00193,-5.23214 -131.28254,-9.54019 -133.95691,-9.57345 -6.03207,-0.075 -3.55589,-18.53984 9.15012,-68.23206 41.26358,-161.37878 162.15255,-281.34289 342.53318,-339.91262 159.81546,-51.8922 372.99715,-59.3923 554.12765,-19.49518 179.4237,39.52117 326.734,135.86846 385.7503,252.29735 21.3047,42.03041 25.5985,60.30605 28.0537,119.40537 2.6119,62.87079 -1.3459,83.75861 -25.7301,135.79294 -37.5835,80.20116 -93.3755,133.71777 -256.2671,245.81554 -104.8192,72.1339 -142.178,100.7714 -172.6906,132.3771 -39.0464,40.445 -51.5045,73.6188 -60.2323,160.3882 -2.345,23.3141 -5.1937,49.7592 -6.3304,58.7669 l -2.0667,16.3776 -144.27252,0 -144.27256,0 0.12061,-18.3044 1.6e-4,0 z"
     id="path3000"
     inkscape:connector-curvature="0" />
  <path
     style="fill:#ffffff"
     d="m 840.20594,1756.3578 -12.52408,-1.5542 0,-119.2164 0,-119.2163 167.63006,0 167.63008,0 0,121.3873 0,121.3873 -155.106,-0.6168 c -85.30828,-0.3391 -160.74181,-1.3161 -167.63006,-2.1709 z"
     id="path3002"
     inkscape:connector-curvature="0" />
  <path
     style="fill:#ffffff"
     d="m 840.20594,1756.3578 -12.52408,-1.5542 0,-119.2164 0,-119.2163 167.63006,0 167.63008,0 0,121.3873 0,121.3873 -155.106,-0.6168 c -85.30828,-0.3391 -160.74181,-1.3161 -167.63006,-2.1709 z"
     id="path3004"
     inkscape:connector-curvature="0" />
  <path
     style="fill:#ffffff"
     d="m 840.20594,1756.3578 -12.52408,-1.5542 0,-119.2164 0,-119.2163 167.63006,0 167.63008,0 0,121.3873 0,121.3873 -155.106,-0.6168 c -85.30828,-0.3391 -160.74181,-1.3161 -167.63006,-2.1709 z"
     id="path3006"
     inkscape:connector-curvature="0" />
</svg>
